<svg width="20" height="20" viewBox="0 0 20 20" fill="none" xmlns="http://www.w3.org/2000/svg">
<g id="plus icon">
<path id="Vector" d="M1 4.429C1 3.51957 1.36127 2.64739 2.00433 2.00433C2.64739 1.36127 3.51957 1 4.429 1H15.571C16.0213 1 16.4672 1.08869 16.8832 1.26102C17.2992 1.43334 17.6773 1.68592 17.9957 2.00433C18.3141 2.32274 18.5667 2.70075 18.739 3.11678C18.9113 3.5328 19 3.9787 19 4.429V15.571C19 16.0213 18.9113 16.4672 18.739 16.8832C18.5667 17.2992 18.3141 17.6773 17.9957 17.9957C17.6773 18.3141 17.2992 18.5667 16.8832 18.739C16.4672 18.9113 16.0213 19 15.571 19H4.429C3.51957 19 2.64739 18.6387 2.00433 17.9957C1.36127 17.3526 1 16.4804 1 15.571V4.429Z" stroke="#2064B0" stroke-width="1.5" stroke-linecap="round" stroke-linejoin="round"/>
<path id="Vector_2" d="M6.14311 9.99997H13.8574" stroke="#2064B0" stroke-width="1.5" stroke-linecap="round" stroke-linejoin="round"/>
<path id="Vector_3" d="M10.0002 6.14283V13.8571" stroke="#2064B0" stroke-width="1.5" stroke-linecap="round" stroke-linejoin="round"/>
</g>
</svg>
