<svg width="20" height="21" viewBox="0 0 20 21" fill="none" xmlns="http://www.w3.org/2000/svg">
<g id="User">
<path id="Vector" fill-rule="evenodd" clip-rule="evenodd" d="M10 9.06085C10.7956 9.06085 11.5587 8.74478 12.1213 8.18217C12.6839 7.61956 13 6.8565 13 6.06085C13 5.2652 12.6839 4.50214 12.1213 3.93953C11.5587 3.37692 10.7956 3.06085 10 3.06085C9.20435 3.06085 8.44129 3.37692 7.87868 3.93953C7.31607 4.50214 7 5.2652 7 6.06085C7 6.8565 7.31607 7.61956 7.87868 8.18217C8.44129 8.74478 9.20435 9.06085 10 9.06085ZM3 18.0609C3 17.1416 3.18106 16.2313 3.53284 15.3821C3.88463 14.5328 4.40024 13.7611 5.05025 13.1111C5.70026 12.4611 6.47194 11.9455 7.32122 11.5937C8.1705 11.2419 9.08075 11.0609 10 11.0609C10.9193 11.0609 11.8295 11.2419 12.6788 11.5937C13.5281 11.9455 14.2997 12.4611 14.9497 13.1111C15.5998 13.7611 16.1154 14.5328 16.4672 15.3821C16.8189 16.2313 17 17.1416 17 18.0609H3Z" fill="white"/>
</g>
</svg>
